<?xml version="1.0" standalone="no"?>
<!DOCTYPE svg PUBLIC "-//W3C//DTD SVG 20010904//EN"
 "http://www.w3.org/TR/2001/REC-SVG-20010904/DTD/svg10.dtd">
<svg version="1.0" xmlns="http://www.w3.org/2000/svg"
 width="1080.000000pt" height="1080.000000pt" viewBox="0 0 1080.000000 1080.000000"
 preserveAspectRatio="xMidYMid meet">

<g transform="translate(0.000000,1080.000000) scale(0.100000,-0.100000)"
fill="#000000" stroke="none">
<path d="M4583 8798 c-13 -15 -15 -196 -15 -1625 -1 -1629 3 -1808 36 -1888 8
-18 22 -70 31 -116 9 -45 25 -96 36 -113 10 -17 19 -43 19 -57 0 -15 9 -37 19
-51 11 -13 23 -38 27 -54 12 -48 82 -176 115 -210 31 -32 32 -32 67 -17 50 21
110 71 228 188 68 67 105 113 113 138 12 35 10 42 -27 120 -21 45 -44 104 -51
130 -6 27 -19 59 -27 72 -8 13 -19 61 -24 107 -5 45 -16 131 -25 191 -14 101
-14 115 4 230 11 67 22 144 26 172 4 27 13 62 21 76 7 15 18 49 24 75 6 27 27
82 48 122 20 40 47 92 58 115 12 24 29 49 38 56 9 7 16 19 16 26 0 10 57 90
95 131 66 74 159 166 195 194 74 58 219 150 235 150 7 0 18 7 25 15 7 8 31 20
54 26 22 6 60 22 83 35 23 13 49 24 57 24 9 0 42 9 73 19 70 24 102 29 264 40
152 11 373 -7 459 -38 30 -11 67 -20 82 -21 15 0 82 -29 150 -64 170 -88 198
-105 254 -153 27 -22 82 -69 122 -103 40 -34 80 -73 89 -88 10 -15 20 -29 23
-32 27 -25 112 -133 129 -165 12 -22 39 -69 61 -105 21 -36 42 -81 46 -100 4
-19 17 -55 29 -80 12 -25 25 -67 29 -95 4 -27 16 -76 27 -108 16 -48 19 -85
19 -245 0 -191 -10 -282 -36 -339 -7 -17 -14 -44 -14 -60 0 -15 -11 -52 -25
-81 -14 -30 -25 -59 -25 -65 0 -7 -18 -46 -40 -87 -22 -41 -47 -91 -57 -110
-18 -37 -41 -67 -120 -163 -50 -60 -184 -197 -193 -197 -3 0 -26 -18 -50 -41
-25 -22 -62 -49 -82 -60 -20 -10 -39 -23 -43 -28 -6 -11 -169 -91 -183 -91 -5
0 -20 -8 -33 -19 -13 -10 -44 -22 -69 -26 -25 -4 -77 -17 -115 -30 -53 -17
-107 -25 -215 -30 -169 -8 -446 10 -470 30 -17 15 -137 45 -179 45 -21 0 -36
-10 -56 -36 -15 -19 -96 -104 -181 -189 l-154 -154 37 -30 c21 -17 53 -36 73
-42 19 -6 49 -20 66 -30 17 -10 54 -24 84 -30 29 -6 67 -19 84 -29 17 -10 54
-22 81 -25 28 -4 84 -16 125 -27 147 -39 611 -41 724 -3 23 8 74 19 114 25 39
5 90 17 114 26 24 8 63 22 87 30 24 7 58 23 76 34 18 11 39 20 46 20 23 0 160
70 165 84 3 8 22 16 43 20 21 3 46 15 57 27 10 12 46 39 79 60 33 22 85 60
115 86 101 89 215 196 224 212 5 9 32 43 60 76 50 59 60 72 94 128 9 16 29 45
45 64 15 20 27 42 27 49 0 7 11 25 24 41 14 16 28 42 32 58 4 16 18 44 31 63
12 19 23 44 23 56 0 12 11 42 24 67 13 25 28 63 31 84 4 22 17 60 28 85 10 24
24 78 28 120 5 41 17 109 27 150 24 105 24 434 0 535 -9 39 -22 108 -29 155
-6 47 -20 100 -30 118 -11 18 -19 45 -19 60 0 15 -13 54 -30 87 -16 33 -30 67
-30 76 0 35 -136 276 -233 414 -57 82 -353 377 -403 403 -23 12 -56 34 -74 49
-36 30 -84 57 -230 128 -52 26 -106 53 -120 60 -14 7 -45 18 -70 24 -25 7 -67
21 -94 33 -27 11 -86 26 -130 34 -45 8 -106 21 -136 29 -119 34 -606 29 -673
-7 -10 -5 -56 -15 -102 -23 -47 -7 -99 -20 -115 -29 -17 -8 -56 -22 -88 -31
-31 -9 -66 -23 -78 -30 -11 -7 -39 -18 -62 -24 -23 -7 -48 -18 -56 -27 -8 -8
-33 -21 -54 -28 -21 -8 -69 -35 -106 -60 -37 -25 -71 -46 -75 -46 -9 0 -210
-157 -252 -197 -18 -16 -36 -23 -53 -21 l-27 3 0 826 c0 791 0 827 -18 843
-16 15 -50 17 -250 19 -207 2 -234 0 -248 -15z"/>
<path d="M3986 7648 c-44 -9 -121 -24 -170 -33 -49 -9 -102 -23 -117 -31 -15
-8 -52 -19 -81 -25 -29 -6 -64 -19 -78 -28 -14 -10 -48 -26 -77 -35 -28 -9
-56 -23 -63 -31 -6 -7 -23 -16 -38 -20 -15 -3 -44 -17 -64 -31 -21 -13 -41
-24 -45 -24 -9 0 -146 -97 -179 -127 -11 -10 -46 -38 -77 -62 -32 -24 -81 -71
-109 -105 -29 -33 -75 -84 -103 -113 -27 -29 -60 -65 -73 -80 -64 -78 -181
-269 -197 -323 -4 -14 -16 -35 -25 -47 -10 -13 -21 -39 -24 -58 -4 -20 -15
-50 -25 -68 -11 -18 -24 -57 -31 -87 -7 -30 -19 -64 -26 -75 -7 -11 -18 -54
-24 -95 -6 -41 -21 -120 -33 -175 l-22 -100 -2 -1619 c-2 -1488 -1 -1621 14
-1638 15 -16 37 -18 263 -18 178 0 249 3 258 12 9 9 12 207 12 829 0 514 4
827 10 844 10 25 10 26 42 9 18 -10 54 -38 80 -63 92 -89 217 -185 281 -217
59 -28 114 -59 128 -70 8 -6 39 -19 69 -29 30 -10 68 -26 85 -37 16 -10 41
-18 55 -18 14 0 44 -9 65 -21 22 -11 81 -29 130 -39 50 -10 121 -25 160 -34
53 -12 130 -16 320 -17 218 0 260 2 325 19 41 11 107 25 145 32 39 7 84 20
101 30 17 9 50 20 75 24 25 4 58 15 75 25 16 10 47 24 69 31 86 28 423 229
425 252 0 4 18 19 40 33 39 24 173 154 218 211 12 16 48 61 80 100 31 39 65
84 74 100 24 40 39 64 64 99 12 17 26 47 33 67 7 20 18 42 26 48 8 6 19 28 26
48 7 20 20 48 30 62 9 14 20 42 24 63 3 21 15 55 25 76 11 20 26 68 34 106 8
39 22 95 31 125 40 133 40 679 0 805 -8 28 -22 82 -30 122 -7 40 -21 82 -29
95 -8 13 -20 45 -26 73 -6 27 -18 57 -26 66 -8 9 -21 40 -29 69 -8 29 -20 59
-28 69 -8 9 -22 33 -30 54 -9 20 -21 37 -26 37 -6 0 -18 14 -27 31 -14 29 -18
30 -52 24 -20 -4 -48 -17 -62 -30 -14 -13 -42 -30 -62 -39 -21 -8 -38 -19 -38
-23 0 -5 -36 -47 -81 -93 -45 -47 -92 -104 -106 -128 l-26 -43 27 -52 c14 -29
26 -56 26 -61 0 -4 9 -19 20 -33 11 -14 20 -36 20 -49 0 -13 9 -47 21 -76 28
-72 64 -303 64 -413 0 -120 -31 -341 -55 -386 -10 -19 -22 -53 -26 -75 -3 -21
-17 -59 -30 -84 -13 -25 -24 -50 -24 -55 0 -6 -11 -26 -24 -44 -14 -19 -28
-46 -31 -62 -4 -15 -13 -33 -21 -40 -8 -7 -36 -44 -62 -83 -75 -111 -282 -309
-384 -366 -15 -8 -61 -34 -103 -57 -41 -23 -92 -47 -113 -52 -20 -6 -47 -17
-59 -26 -11 -8 -47 -21 -80 -29 -32 -8 -76 -22 -99 -30 -57 -21 -347 -31 -500
-17 -80 7 -136 18 -165 31 -24 11 -55 20 -69 20 -14 0 -52 14 -85 30 -33 17
-67 30 -77 30 -9 0 -20 5 -23 11 -4 5 -30 20 -58 33 -82 36 -116 61 -292 212
-39 34 -90 87 -114 118 -24 31 -47 56 -52 56 -10 0 -89 120 -89 135 0 7 -9 20
-20 30 -10 9 -25 34 -31 54 -7 20 -20 46 -30 59 -10 13 -21 37 -25 55 -3 18
-14 48 -24 67 -10 19 -21 55 -25 79 -4 24 -13 58 -20 75 -37 90 -46 471 -13
561 8 22 21 72 28 110 7 39 21 87 31 107 11 21 19 43 19 49 0 13 69 155 102
209 53 88 90 140 98 140 5 0 16 13 24 28 18 35 149 166 196 197 19 13 50 37
69 55 89 83 253 163 481 234 73 23 110 27 258 33 155 6 174 8 183 25 6 11 9
113 8 259 -2 199 -5 244 -17 256 -21 20 -253 15 -366 -9z"/>
</g>
</svg>
